<svg xmlns="http://www.w3.org/2000/svg" width="28.205" height="33.75" viewBox="0 0 28.205 33.75"><defs><style>.a{fill:#3bb300;stroke:#3bb300;}</style></defs><g transform="translate(0.5 0.5)"><path class="a" d="M46.1,19.216l-.084-.038c-.2-.091-.4-.177-.607-.257q-.336-.135-.682-.25c-.182-.06-.365-.116-.551-.17-.282-.082-.567-.155-.861-.221-.1-.021-.2-.041-.3-.059l-.069-.013c-.173-.034-.347-.064-.523-.09l-.05-.008h-.005l-.05-.007c-.146-.022-.292-.042-.443-.06L41.358,18a13.935,13.935,0,0,0-1.913.005l-.183.015-.085.007-.213.019c-.2.021-.391.048-.585.079l-.057.008c-.133.022-.266.047-.4.071s-.289.054-.433.086c-.278.062-.553.134-.82.211-.213.061-.422.128-.62.2l-.137.049c-.419.148-.834.318-1.237.5l-.108.051,0,0a13.657,13.657,0,0,0-7.744,12.265c0,.12.008.237.015.355l.035.826h27.1l.036-.817c.008-.121.015-.241.015-.365A13.638,13.638,0,0,0,46.1,19.216ZM28.153,31.424a12.313,12.313,0,0,1,7.038-10.945l.136-.053.016-.015c.33-.151.671-.288,1.016-.41l.11-.039c.188-.065.375-.125.57-.18.243-.071.49-.135.737-.191.128-.027.256-.053.389-.078.1-.019.209-.039.315-.056l.052-.009c.19-.03.381-.057.571-.078l.434-.038a11.663,11.663,0,0,1,1.772,0l.422.035c.1.012.209.026.336.044l.152.022c.159.023.318.05.477.08l.074.014c.09.017.179.034.263.052.262.057.519.125.774.2.169.049.336.1.5.154q.311.1.615.225t.577.245l.033.015A12.307,12.307,0,0,1,52.7,31.422H28.153Zm8.989-15.131c.1.042.2.078.306.115l.216.078c.083.032.167.063.252.09a8.421,8.421,0,0,0,2.463.384h.067a8.433,8.433,0,0,0,.856-.044c.1-.009.189-.025.282-.041l.208-.031c.117-.015.234-.033.356-.056.084-.017.165-.039.246-.061l.227-.058c.112-.027.225-.054.336-.089.069-.022.137-.047.2-.072l.183-.066c.13-.045.262-.092.393-.147.051-.022.1-.046.15-.07l.059-.029c.18-.08.359-.163.537-.258l.116-.069c.2-.113.4-.23.6-.367.1-.07.2-.149.3-.228l.34-.264a8.415,8.415,0,0,0,3.08-6.459l0-.07a8.475,8.475,0,0,0-16.933-.534l-.007.11c-.011.14-.019.28-.019.424A8.463,8.463,0,0,0,37.143,16.293ZM33.309,8.149l.008-.12A7.148,7.148,0,0,1,47.6,8.42l0,.07A7.15,7.15,0,0,1,44.986,14l-.316.241c-.07.057-.142.114-.23.175-.159.108-.328.206-.5.3l-.1.058c-.143.077-.294.145-.451.215l-.176.085c-.1.042-.207.078-.312.115l-.219.079c-.042.016-.086.033-.128.046-.082.025-.165.045-.248.065l-.265.068c-.057.015-.114.031-.164.042-.088.017-.179.029-.268.042l-.252.038c-.061.011-.122.021-.191.028-.221.023-.444.036-.67.038h-.064a7.118,7.118,0,0,1-2.125-.323c-.059-.019-.117-.042-.175-.064l-.25-.091c-.078-.027-.155-.054-.229-.085a7.141,7.141,0,0,1-4.366-6.589C33.293,8.369,33.3,8.259,33.309,8.149Z" transform="translate(-26.824 -0.002)"/></g></svg>