<svg xmlns="http://www.w3.org/2000/svg" width="36.875" height="35.614" viewBox="0 0 36.875 35.614"><defs><style>.a{fill:#3bb300;}</style></defs><g transform="translate(0 0)"><g transform="translate(0 0)"><path class="a" d="M5.1,24.195C1.7,24.195,0,32.61,0,34.6a5.106,5.106,0,0,0,4.2,5.016v19.3a.9.9,0,0,0,1.8,0v-19.3A5.106,5.106,0,0,0,10.2,34.6C10.2,32.61,8.5,24.195,5.1,24.195Zm0,13.7a3.3,3.3,0,0,1-3.3-3.3c0-2.738,2.071-8.6,3.3-8.6s3.3,5.862,3.3,8.6A3.3,3.3,0,0,1,5.1,37.9Z" transform="translate(0 -24.195)"/><path class="a" d="M206.713,24.4a.9.9,0,0,0-1.475.694V58.907a.9.9,0,0,0,1.8,0V42.384a6.1,6.1,0,0,0,4.5-6.072C211.551,28.488,206.911,24.563,206.713,24.4Zm.327,16.063V27.489a15.033,15.033,0,0,1,2.7,8.822A4.233,4.233,0,0,1,207.04,40.463Z" transform="translate(-188.914 -24.193)"/><path class="a" d="M362.422,24.194a.9.9,0,0,0-.9.9v4.457h-1.849V25.1a.9.9,0,0,0-1.8,0v4.457h-1.849V25.1a.9.9,0,0,0-1.8,0v8.141A4.559,4.559,0,0,0,357.87,37.7V58.907a.9.9,0,0,0,1.8,0V37.7a4.559,4.559,0,0,0,3.651-4.462V25.1A.9.9,0,0,0,362.422,24.194Zm-.9,9.042a2.75,2.75,0,1,1-5.5,0V31.354h5.5v1.882Z" transform="translate(-326.447 -24.194)"/></g></g></svg>